<mxfile host="app.diagrams.net" modified="2020-08-17T20:01:48.575Z" agent="5.0 (Windows NT 6.1; Win64; x64) AppleWebKit/537.36 (KHTML, like Gecko) Chrome/84.0.4147.125 Safari/537.36" etag="mE2EZENnqbBJ_4GSGalj" version="13.6.2" type="github">
  <diagram id="hCjdTz5Qb628XWVg9SOU" name="Página-1">
    <mxGraphModel dx="868" dy="482" grid="1" gridSize="10" guides="1" tooltips="1" connect="1" arrows="1" fold="1" page="1" pageScale="1" pageWidth="827" pageHeight="1169" math="0" shadow="0">
      <root>
        <mxCell id="0" />
        <mxCell id="1" parent="0" />
        <mxCell id="6_gv4AZ-S3tcq-_fCSAw-1" value="OBRA" style="shape=table;startSize=30;container=1;collapsible=1;childLayout=tableLayout;fixedRows=1;rowLines=0;fontStyle=1;align=center;resizeLast=1;" vertex="1" parent="1">
          <mxGeometry x="40" y="80" width="180" height="250" as="geometry">
            <mxRectangle x="40" y="80" width="70" height="30" as="alternateBounds" />
          </mxGeometry>
        </mxCell>
        <mxCell id="6_gv4AZ-S3tcq-_fCSAw-2" value="" style="shape=partialRectangle;collapsible=0;dropTarget=0;pointerEvents=0;fillColor=none;top=0;left=0;bottom=1;right=0;points=[[0,0.5],[1,0.5]];portConstraint=eastwest;" vertex="1" parent="6_gv4AZ-S3tcq-_fCSAw-1">
          <mxGeometry y="30" width="180" height="30" as="geometry" />
        </mxCell>
        <mxCell id="6_gv4AZ-S3tcq-_fCSAw-3" value="PK" style="shape=partialRectangle;connectable=0;fillColor=none;top=0;left=0;bottom=0;right=0;fontStyle=1;overflow=hidden;" vertex="1" parent="6_gv4AZ-S3tcq-_fCSAw-2">
          <mxGeometry width="30" height="30" as="geometry" />
        </mxCell>
        <mxCell id="6_gv4AZ-S3tcq-_fCSAw-4" value="COD_OBRA" style="shape=partialRectangle;connectable=0;fillColor=none;top=0;left=0;bottom=0;right=0;align=left;spacingLeft=6;fontStyle=5;overflow=hidden;" vertex="1" parent="6_gv4AZ-S3tcq-_fCSAw-2">
          <mxGeometry x="30" width="150" height="30" as="geometry" />
        </mxCell>
        <mxCell id="6_gv4AZ-S3tcq-_fCSAw-5" value="" style="shape=partialRectangle;collapsible=0;dropTarget=0;pointerEvents=0;fillColor=none;top=0;left=0;bottom=0;right=0;points=[[0,0.5],[1,0.5]];portConstraint=eastwest;" vertex="1" parent="6_gv4AZ-S3tcq-_fCSAw-1">
          <mxGeometry y="60" width="180" height="30" as="geometry" />
        </mxCell>
        <mxCell id="6_gv4AZ-S3tcq-_fCSAw-6" value="" style="shape=partialRectangle;connectable=0;fillColor=none;top=0;left=0;bottom=0;right=0;editable=1;overflow=hidden;" vertex="1" parent="6_gv4AZ-S3tcq-_fCSAw-5">
          <mxGeometry width="30" height="30" as="geometry" />
        </mxCell>
        <mxCell id="6_gv4AZ-S3tcq-_fCSAw-7" value="Título" style="shape=partialRectangle;connectable=0;fillColor=none;top=0;left=0;bottom=0;right=0;align=left;spacingLeft=6;overflow=hidden;" vertex="1" parent="6_gv4AZ-S3tcq-_fCSAw-5">
          <mxGeometry x="30" width="150" height="30" as="geometry" />
        </mxCell>
        <mxCell id="6_gv4AZ-S3tcq-_fCSAw-8" value="" style="shape=partialRectangle;collapsible=0;dropTarget=0;pointerEvents=0;fillColor=none;top=0;left=0;bottom=0;right=0;points=[[0,0.5],[1,0.5]];portConstraint=eastwest;" vertex="1" parent="6_gv4AZ-S3tcq-_fCSAw-1">
          <mxGeometry y="90" width="180" height="30" as="geometry" />
        </mxCell>
        <mxCell id="6_gv4AZ-S3tcq-_fCSAw-9" value="" style="shape=partialRectangle;connectable=0;fillColor=none;top=0;left=0;bottom=0;right=0;editable=1;overflow=hidden;" vertex="1" parent="6_gv4AZ-S3tcq-_fCSAw-8">
          <mxGeometry width="30" height="30" as="geometry" />
        </mxCell>
        <mxCell id="6_gv4AZ-S3tcq-_fCSAw-10" value="Autor_Principal" style="shape=partialRectangle;connectable=0;fillColor=none;top=0;left=0;bottom=0;right=0;align=left;spacingLeft=6;overflow=hidden;" vertex="1" parent="6_gv4AZ-S3tcq-_fCSAw-8">
          <mxGeometry x="30" width="150" height="30" as="geometry" />
        </mxCell>
        <mxCell id="6_gv4AZ-S3tcq-_fCSAw-11" value="" style="shape=partialRectangle;collapsible=0;dropTarget=0;pointerEvents=0;fillColor=none;top=0;left=0;bottom=0;right=0;points=[[0,0.5],[1,0.5]];portConstraint=eastwest;" vertex="1" parent="6_gv4AZ-S3tcq-_fCSAw-1">
          <mxGeometry y="120" width="180" height="30" as="geometry" />
        </mxCell>
        <mxCell id="6_gv4AZ-S3tcq-_fCSAw-12" value="" style="shape=partialRectangle;connectable=0;fillColor=none;top=0;left=0;bottom=0;right=0;editable=1;overflow=hidden;" vertex="1" parent="6_gv4AZ-S3tcq-_fCSAw-11">
          <mxGeometry width="30" height="30" as="geometry" />
        </mxCell>
        <mxCell id="6_gv4AZ-S3tcq-_fCSAw-13" value="Ano_Publicacao" style="shape=partialRectangle;connectable=0;fillColor=none;top=0;left=0;bottom=0;right=0;align=left;spacingLeft=6;overflow=hidden;" vertex="1" parent="6_gv4AZ-S3tcq-_fCSAw-11">
          <mxGeometry x="30" width="150" height="30" as="geometry" />
        </mxCell>
        <mxCell id="6_gv4AZ-S3tcq-_fCSAw-14" value="" style="shape=partialRectangle;collapsible=0;dropTarget=0;pointerEvents=0;fillColor=none;top=0;left=0;bottom=0;right=0;points=[[0,0.5],[1,0.5]];portConstraint=eastwest;" vertex="1" parent="6_gv4AZ-S3tcq-_fCSAw-1">
          <mxGeometry y="150" width="180" height="30" as="geometry" />
        </mxCell>
        <mxCell id="6_gv4AZ-S3tcq-_fCSAw-15" value="" style="shape=partialRectangle;connectable=0;fillColor=none;top=0;left=0;bottom=0;right=0;editable=1;overflow=hidden;" vertex="1" parent="6_gv4AZ-S3tcq-_fCSAw-14">
          <mxGeometry width="30" height="30" as="geometry" />
        </mxCell>
        <mxCell id="6_gv4AZ-S3tcq-_fCSAw-16" value="Situacao_Obra" style="shape=partialRectangle;connectable=0;fillColor=none;top=0;left=0;bottom=0;right=0;align=left;spacingLeft=6;overflow=hidden;" vertex="1" parent="6_gv4AZ-S3tcq-_fCSAw-14">
          <mxGeometry x="30" width="150" height="30" as="geometry" />
        </mxCell>
        <mxCell id="6_gv4AZ-S3tcq-_fCSAw-17" value="" style="shape=partialRectangle;collapsible=0;dropTarget=0;pointerEvents=0;fillColor=none;top=0;left=0;bottom=0;right=0;points=[[0,0.5],[1,0.5]];portConstraint=eastwest;" vertex="1" parent="6_gv4AZ-S3tcq-_fCSAw-1">
          <mxGeometry y="180" width="180" height="30" as="geometry" />
        </mxCell>
        <mxCell id="6_gv4AZ-S3tcq-_fCSAw-18" value="" style="shape=partialRectangle;connectable=0;fillColor=none;top=0;left=0;bottom=0;right=0;editable=1;overflow=hidden;" vertex="1" parent="6_gv4AZ-S3tcq-_fCSAw-17">
          <mxGeometry width="30" height="30" as="geometry" />
        </mxCell>
        <mxCell id="6_gv4AZ-S3tcq-_fCSAw-19" value="Tipo_Obra" style="shape=partialRectangle;connectable=0;fillColor=none;top=0;left=0;bottom=0;right=0;align=left;spacingLeft=6;overflow=hidden;" vertex="1" parent="6_gv4AZ-S3tcq-_fCSAw-17">
          <mxGeometry x="30" width="150" height="30" as="geometry" />
        </mxCell>
        <mxCell id="6_gv4AZ-S3tcq-_fCSAw-20" value="" style="shape=partialRectangle;collapsible=0;dropTarget=0;pointerEvents=0;fillColor=none;top=0;left=0;bottom=0;right=0;points=[[0,0.5],[1,0.5]];portConstraint=eastwest;" vertex="1" parent="6_gv4AZ-S3tcq-_fCSAw-1">
          <mxGeometry y="210" width="180" height="30" as="geometry" />
        </mxCell>
        <mxCell id="6_gv4AZ-S3tcq-_fCSAw-21" value="FK" style="shape=partialRectangle;connectable=0;fillColor=none;top=0;left=0;bottom=0;right=0;editable=1;overflow=hidden;" vertex="1" parent="6_gv4AZ-S3tcq-_fCSAw-20">
          <mxGeometry width="30" height="30" as="geometry" />
        </mxCell>
        <mxCell id="6_gv4AZ-S3tcq-_fCSAw-22" value="Cod_Editora" style="shape=partialRectangle;connectable=0;fillColor=none;top=0;left=0;bottom=0;right=0;align=left;spacingLeft=6;overflow=hidden;" vertex="1" parent="6_gv4AZ-S3tcq-_fCSAw-20">
          <mxGeometry x="30" width="150" height="30" as="geometry" />
        </mxCell>
        <mxCell id="6_gv4AZ-S3tcq-_fCSAw-23" value="Editora" style="shape=table;startSize=30;container=1;collapsible=1;childLayout=tableLayout;fixedRows=1;rowLines=0;fontStyle=1;align=center;resizeLast=1;" vertex="1" parent="1">
          <mxGeometry x="360" y="80" width="180" height="130" as="geometry">
            <mxRectangle x="360" y="80" width="70" height="30" as="alternateBounds" />
          </mxGeometry>
        </mxCell>
        <mxCell id="6_gv4AZ-S3tcq-_fCSAw-24" value="" style="shape=partialRectangle;collapsible=0;dropTarget=0;pointerEvents=0;fillColor=none;top=0;left=0;bottom=1;right=0;points=[[0,0.5],[1,0.5]];portConstraint=eastwest;" vertex="1" parent="6_gv4AZ-S3tcq-_fCSAw-23">
          <mxGeometry y="30" width="180" height="30" as="geometry" />
        </mxCell>
        <mxCell id="6_gv4AZ-S3tcq-_fCSAw-25" value="PK" style="shape=partialRectangle;connectable=0;fillColor=none;top=0;left=0;bottom=0;right=0;fontStyle=1;overflow=hidden;" vertex="1" parent="6_gv4AZ-S3tcq-_fCSAw-24">
          <mxGeometry width="30" height="30" as="geometry" />
        </mxCell>
        <mxCell id="6_gv4AZ-S3tcq-_fCSAw-26" value="COD_EDITORA" style="shape=partialRectangle;connectable=0;fillColor=none;top=0;left=0;bottom=0;right=0;align=left;spacingLeft=6;fontStyle=5;overflow=hidden;" vertex="1" parent="6_gv4AZ-S3tcq-_fCSAw-24">
          <mxGeometry x="30" width="150" height="30" as="geometry" />
        </mxCell>
        <mxCell id="6_gv4AZ-S3tcq-_fCSAw-27" value="" style="shape=partialRectangle;collapsible=0;dropTarget=0;pointerEvents=0;fillColor=none;top=0;left=0;bottom=0;right=0;points=[[0,0.5],[1,0.5]];portConstraint=eastwest;" vertex="1" parent="6_gv4AZ-S3tcq-_fCSAw-23">
          <mxGeometry y="60" width="180" height="30" as="geometry" />
        </mxCell>
        <mxCell id="6_gv4AZ-S3tcq-_fCSAw-28" value="" style="shape=partialRectangle;connectable=0;fillColor=none;top=0;left=0;bottom=0;right=0;editable=1;overflow=hidden;" vertex="1" parent="6_gv4AZ-S3tcq-_fCSAw-27">
          <mxGeometry width="30" height="30" as="geometry" />
        </mxCell>
        <mxCell id="6_gv4AZ-S3tcq-_fCSAw-29" value="Nome_Editora" style="shape=partialRectangle;connectable=0;fillColor=none;top=0;left=0;bottom=0;right=0;align=left;spacingLeft=6;overflow=hidden;" vertex="1" parent="6_gv4AZ-S3tcq-_fCSAw-27">
          <mxGeometry x="30" width="150" height="30" as="geometry" />
        </mxCell>
        <mxCell id="6_gv4AZ-S3tcq-_fCSAw-30" value="" style="shape=partialRectangle;collapsible=0;dropTarget=0;pointerEvents=0;fillColor=none;top=0;left=0;bottom=0;right=0;points=[[0,0.5],[1,0.5]];portConstraint=eastwest;" vertex="1" parent="6_gv4AZ-S3tcq-_fCSAw-23">
          <mxGeometry y="90" width="180" height="30" as="geometry" />
        </mxCell>
        <mxCell id="6_gv4AZ-S3tcq-_fCSAw-31" value="" style="shape=partialRectangle;connectable=0;fillColor=none;top=0;left=0;bottom=0;right=0;editable=1;overflow=hidden;" vertex="1" parent="6_gv4AZ-S3tcq-_fCSAw-30">
          <mxGeometry width="30" height="30" as="geometry" />
        </mxCell>
        <mxCell id="6_gv4AZ-S3tcq-_fCSAw-32" value="Cidade" style="shape=partialRectangle;connectable=0;fillColor=none;top=0;left=0;bottom=0;right=0;align=left;spacingLeft=6;overflow=hidden;" vertex="1" parent="6_gv4AZ-S3tcq-_fCSAw-30">
          <mxGeometry x="30" width="150" height="30" as="geometry" />
        </mxCell>
        <mxCell id="6_gv4AZ-S3tcq-_fCSAw-36" value="" style="edgeStyle=elbowEdgeStyle;fontSize=12;html=1;endArrow=ERzeroToMany;startArrow=ERmandOne;exitX=0;exitY=0.5;exitDx=0;exitDy=0;entryX=1;entryY=0.5;entryDx=0;entryDy=0;endSize=8;targetPerimeterSpacing=2;sourcePerimeterSpacing=2;startSize=8;" edge="1" parent="1" source="6_gv4AZ-S3tcq-_fCSAw-24" target="6_gv4AZ-S3tcq-_fCSAw-20">
          <mxGeometry width="100" height="100" relative="1" as="geometry">
            <mxPoint x="360" y="300" as="sourcePoint" />
            <mxPoint x="320" y="370" as="targetPoint" />
          </mxGeometry>
        </mxCell>
      </root>
    </mxGraphModel>
  </diagram>
</mxfile>
